<svg xmlns="http://www.w3.org/2000/svg" viewBox="0 0 1440 120" preserveAspectRatio="none">
  <defs>
    <linearGradient id="oceanGrad" x1="0" x2="1" y1="0" y2="0">
      <stop offset="0%" stop-color="#93c5fd"/>
      <stop offset="100%" stop-color="#f9a8d4"/>
    </linearGradient>
  </defs>
  <path d="M0,64 C160,96 320,32 480,42.7 C640,53 800,117 960,112 C1120,107 1280,53 1440,48 L1440,120 L0,120 Z"
        fill="url(#oceanGrad)" opacity="0.40"/>
  <path d="M0,72 C180,92 300,54 520,58 C760,62 860,108 1080,100 C1240,94 1330,62 1440,60 L1440,120 L0,120 Z"
        fill="#bfdbfe" opacity="0.30"/>
  <path d="M0,84 C200,110 420,70 640,76 C860,82 1100,112 1320,96 C1390,90 1410,86 1440,84 L1440,120 L0,120 Z"
        fill="#fbcfe8" opacity="0.22"/>
</svg>
